# xmcd
#
# Track frame offsets:
#	150
#	12854
#	31288
#	49358
#	59232
#	74055
#	83389
#	98627
#	110110
#	120224
#	136392
#	147617
#	161076
#	173311
#	184665
#	199734
#	213060
#	225881
#
# Disc length: 3136 seconds
#
# Revision: 1
# Processed by: cddbd v1.5.2PL0 Copyright (c) Steve Scherf et al.
# Submitted via: audiograbber 1.83.01
#
DISCID=f40c3e12
DTITLE=Ruzni interpreti - Velky trampsky zpevnik  Ji-K
DYEAR=2005
DGENRE=Country
TTITLE0=Jidelnicek
TTITLE1=Jizni eskadrona
TTITLE2=Jizni kriz
TTITLE3=Jo, kanada
TTITLE4=Joe Bowers
TTITLE5=Joudlejdy jou
TTITLE6=Kamarad
TTITLE7=Kapitan
TTITLE8=Kapkami si dest
TTITLE9=Kde je moje mama
TTITLE10=Kdysi byl moji laskou
TTITLE11=Kdyz ohne vzplanou
TTITLE12=Kdyz se vecer blizi
TTITLE13=Kdyz v pastvinach
TTITLE14=Krasna Izabel
TTITLE15=Kruci kluci
TTITLE16=Kvet sakury bile
TTITLE17=Kvetinarka
EXTD=
EXTT0=
EXTT1=
EXTT2=
EXTT3=
EXTT4=
EXTT5=
EXTT6=
EXTT7=
EXTT8=
EXTT9=
EXTT10=
EXTT11=
EXTT12=
EXTT13=
EXTT14=
EXTT15=
EXTT16=
EXTT17=
PLAYORDER=
